<svg xmlns="http://www.w3.org/2000/svg" width="1500" height="720" viewBox="0 0 1500 720" font-family="DejaVu Sans, Inter, Segoe UI, Helvetica, Arial, sans-serif">
<rect width="1500" height="720" fill="#FFFFFF"/>
<defs><marker id="tri-composite" markerWidth="16" markerHeight="14" refX="15" refY="7" orient="auto" markerUnits="userSpaceOnUse"><polygon points="1,1 15,7 1,13" fill="#fff" stroke="#1D4ED8" stroke-width="1.6"/></marker><marker id="opn-composite" markerWidth="14" markerHeight="12" refX="13" refY="6" orient="auto" markerUnits="userSpaceOnUse"><polyline points="1,1 13,6 1,11" fill="none" stroke="#1D4ED8" stroke-width="1.8"/></marker><marker id="tri-strategy" markerWidth="16" markerHeight="14" refX="15" refY="7" orient="auto" markerUnits="userSpaceOnUse"><polygon points="1,1 15,7 1,13" fill="#fff" stroke="#15803D" stroke-width="1.6"/></marker><marker id="opn-strategy" markerWidth="14" markerHeight="12" refX="13" refY="6" orient="auto" markerUnits="userSpaceOnUse"><polyline points="1,1 13,6 1,11" fill="none" stroke="#15803D" stroke-width="1.8"/></marker><marker id="tri-observer" markerWidth="16" markerHeight="14" refX="15" refY="7" orient="auto" markerUnits="userSpaceOnUse"><polygon points="1,1 15,7 1,13" fill="#fff" stroke="#C2410C" stroke-width="1.6"/></marker><marker id="opn-observer" markerWidth="14" markerHeight="12" refX="13" refY="6" orient="auto" markerUnits="userSpaceOnUse"><polyline points="1,1 13,6 1,11" fill="none" stroke="#C2410C" stroke-width="1.8"/></marker><marker id="tri-factory" markerWidth="16" markerHeight="14" refX="15" refY="7" orient="auto" markerUnits="userSpaceOnUse"><polygon points="1,1 15,7 1,13" fill="#fff" stroke="#7E22CE" stroke-width="1.6"/></marker><marker id="opn-factory" markerWidth="14" markerHeight="12" refX="13" refY="6" orient="auto" markerUnits="userSpaceOnUse"><polyline points="1,1 13,6 1,11" fill="none" stroke="#7E22CE" stroke-width="1.8"/></marker><marker id="tri-neutral" markerWidth="16" markerHeight="14" refX="15" refY="7" orient="auto" markerUnits="userSpaceOnUse"><polygon points="1,1 15,7 1,13" fill="#fff" stroke="#334155" stroke-width="1.6"/></marker><marker id="opn-neutral" markerWidth="14" markerHeight="12" refX="13" refY="6" orient="auto" markerUnits="userSpaceOnUse"><polyline points="1,1 13,6 1,11" fill="none" stroke="#334155" stroke-width="1.8"/></marker></defs>
<text x="40" y="46" font-size="24" font-weight="700" fill="#111827" text-anchor="start">Strategy: algoritmos de optimización de ruta</text>
<text x="40" y="72" font-size="14" font-weight="400" fill="#475569" text-anchor="start">El planificador arma las rutas posibles y la estrategia decide cuál es la mejor; cambiar de criterio no toca el planificador</text>
<rect x="560" y="110" width="296" height="116" rx="6" fill="#fff" stroke="#15803D" stroke-width="2"/>
<path d="M560,160 L560,116 Q560,110 566,110 L850,110 Q856,110 856,116 L856,160 Z" fill="#15803D" fill-opacity="0.10"/>
<text x="708.0" y="132" font-size="12" font-weight="400" fill="#15803D" text-anchor="middle">«interface»</text>
<text x="708.0" y="154" font-size="15" font-weight="700" fill="#111827" text-anchor="middle">EstrategiaOptimizacionRuta</text>
<line x1="560" y1="160" x2="856" y2="160" stroke="#15803D" stroke-width="1.5"/>
<line x1="560" y1="174" x2="856" y2="174" stroke="#15803D" stroke-width="1"/>
<text x="572" y="194" font-size="12.5" font-weight="400" fill="#111827" text-anchor="start" font-family="DejaVu Sans Mono, JetBrains Mono, Consolas, monospace">criterio(): Comparator&lt;Ruta&gt;</text>
<text x="572" y="213" font-size="12.5" font-weight="400" fill="#111827" text-anchor="start" font-family="DejaVu Sans Mono, JetBrains Mono, Consolas, monospace">elegir(candidatas): Ruta  // default</text>
<rect x="160" y="400" width="288" height="77" rx="6" fill="#fff" stroke="#15803D" stroke-width="2"/>
<path d="M160,430 L160,406 Q160,400 166,400 L442,400 Q448,400 448,406 L448,430 Z" fill="#15803D" fill-opacity="0.10"/>
<text x="304.0" y="424" font-size="15" font-weight="700" fill="#111827" text-anchor="middle">MenorDistancia</text>
<line x1="160" y1="430" x2="448" y2="430" stroke="#15803D" stroke-width="1.5"/>
<line x1="160" y1="444" x2="448" y2="444" stroke="#15803D" stroke-width="1"/>
<text x="172" y="464" font-size="12.5" font-weight="400" fill="#111827" text-anchor="start" font-family="DejaVu Sans Mono, JetBrains Mono, Consolas, monospace">criterio()  // km, paradas, minutos</text>
<rect x="560" y="400" width="288" height="77" rx="6" fill="#fff" stroke="#15803D" stroke-width="2"/>
<path d="M560,430 L560,406 Q560,400 566,400 L842,400 Q848,400 848,406 L848,430 Z" fill="#15803D" fill-opacity="0.10"/>
<text x="704.0" y="424" font-size="15" font-weight="700" fill="#111827" text-anchor="middle">MenorDuracion</text>
<line x1="560" y1="430" x2="848" y2="430" stroke="#15803D" stroke-width="1.5"/>
<line x1="560" y1="444" x2="848" y2="444" stroke="#15803D" stroke-width="1"/>
<text x="572" y="464" font-size="12.5" font-weight="400" fill="#111827" text-anchor="start" font-family="DejaVu Sans Mono, JetBrains Mono, Consolas, monospace">criterio()  // minutos, km, paradas</text>
<rect x="960" y="400" width="288" height="77" rx="6" fill="#fff" stroke="#15803D" stroke-width="2"/>
<path d="M960,430 L960,406 Q960,400 966,400 L1242,400 Q1248,400 1248,406 L1248,430 Z" fill="#15803D" fill-opacity="0.10"/>
<text x="1104.0" y="424" font-size="15" font-weight="700" fill="#111827" text-anchor="middle">MenosParadasDeCarga</text>
<line x1="960" y1="430" x2="1248" y2="430" stroke="#15803D" stroke-width="1.5"/>
<line x1="960" y1="444" x2="1248" y2="444" stroke="#15803D" stroke-width="1"/>
<text x="972" y="464" font-size="12.5" font-weight="400" fill="#111827" text-anchor="start" font-family="DejaVu Sans Mono, JetBrains Mono, Consolas, monospace">criterio()  // paradas, km, minutos</text>
<rect x="60" y="110" width="318" height="154" rx="6" fill="#fff" stroke="#15803D" stroke-width="2"/>
<path d="M60,160 L60,116 Q60,110 66,110 L372,110 Q378,110 378,116 L378,160 Z" fill="#15803D" fill-opacity="0.10"/>
<text x="219.0" y="132" font-size="12" font-weight="400" fill="#15803D" text-anchor="middle">«contexto»</text>
<text x="219.0" y="154" font-size="15" font-weight="700" fill="#111827" text-anchor="middle">PlanificadorRutas</text>
<line x1="60" y1="160" x2="378" y2="160" stroke="#15803D" stroke-width="1.5"/>
<text x="72" y="184" font-size="12.5" font-weight="400" fill="#111827" text-anchor="start" font-family="DejaVu Sans Mono, JetBrains Mono, Consolas, monospace">estrategia: EstrategiaOptimizacionRuta</text>
<text x="72" y="203" font-size="12.5" font-weight="400" fill="#111827" text-anchor="start" font-family="DejaVu Sans Mono, JetBrains Mono, Consolas, monospace">alcanceMaximoKm: double</text>
<line x1="60" y1="212" x2="378" y2="212" stroke="#15803D" stroke-width="1"/>
<text x="72" y="232" font-size="12.5" font-weight="400" fill="#111827" text-anchor="start" font-family="DejaVu Sans Mono, JetBrains Mono, Consolas, monospace">planificar(origen, destino, estaciones)</text>
<text x="72" y="251" font-size="12.5" font-weight="400" fill="#111827" text-anchor="start" font-family="DejaVu Sans Mono, JetBrains Mono, Consolas, monospace">: Optional&lt;Ruta&gt;</text>
<rect x="1100" y="110" width="281" height="97" rx="6" fill="#fff" stroke="#1D4ED8" stroke-width="2"/>
<path d="M1100,160 L1100,116 Q1100,110 1106,110 L1375,110 Q1381,110 1381,116 L1381,160 Z" fill="#1D4ED8" fill-opacity="0.10"/>
<text x="1240.5" y="132" font-size="12" font-weight="400" fill="#1D4ED8" text-anchor="middle">«interface»</text>
<text x="1240.5" y="154" font-size="15" font-weight="700" fill="#111827" text-anchor="middle">Ruta</text>
<line x1="1100" y1="160" x2="1381" y2="160" stroke="#1D4ED8" stroke-width="1.5"/>
<line x1="1100" y1="174" x2="1381" y2="174" stroke="#1D4ED8" stroke-width="1"/>
<text x="1112" y="194" font-size="12.5" font-weight="400" fill="#111827" text-anchor="start" font-family="DejaVu Sans Mono, JetBrains Mono, Consolas, monospace">// candidatas: directa o con carga</text>
<polyline points="304,400 304,340 708,340 708,226" fill="none" stroke="#15803D" stroke-width="1.8" stroke-dasharray="7 5" marker-end="url(#tri-strategy)"/>
<polyline points="704,400 704,340 708,340 708,226" fill="none" stroke="#15803D" stroke-width="1.8" stroke-dasharray="7 5" marker-end="url(#tri-strategy)"/>
<polyline points="1104,400 1104,340 708,340 708,226" fill="none" stroke="#15803D" stroke-width="1.8" stroke-dasharray="7 5" marker-end="url(#tri-strategy)"/>
<polyline points="378,195 560,195" fill="none" stroke="#15803D" stroke-width="1.8" marker-end="url(#opn-strategy)"/>
<rect x="437" y="178" width="69" height="19" rx="4" fill="#fff" fill-opacity="0.92"/>
<text x="472" y="190.7" font-size="12" font-weight="600" fill="#15803D" text-anchor="middle">delega en</text>
<polyline points="856,174 1100,174" fill="none" stroke="#15803D" stroke-width="1.8" stroke-dasharray="7 5" marker-end="url(#opn-strategy)"/>
<rect x="885" y="157" width="83" height="19" rx="4" fill="#fff" fill-opacity="0.92"/>
<text x="926" y="169.8" font-size="12" font-weight="600" fill="#15803D" text-anchor="middle">elige entre</text>
<path d="M60,520 L706,520 L720,534 L720,620 L60,620 Z" fill="#15803D" fill-opacity="0.07" stroke="#15803D" stroke-width="1.3"/>
<text x="72" y="542" font-size="13" font-weight="700" fill="#15803D" text-anchor="start">Misma entrada, distinto algoritmo</text>
<text x="72" y="564" font-size="12.5" font-weight="400" fill="#111827" text-anchor="start">Las tres estrategias se prueban con las mismas candidatas y eligen distinto:</text>
<text x="72" y="582" font-size="12.5" font-weight="400" fill="#111827" text-anchor="start">la directa (menos km), la de carga corta (menos minutos) o la que no recarga.</text>
<text x="72" y="600" font-size="12.5" font-weight="400" fill="#111827" text-anchor="start">Si dos rutas empatan en el criterio, el desempate es siempre el mismo (determinista).</text>
</svg>